<?xml version="1.0" encoding="utf-8"?>
<!-- Generator: Adobe Illustrator 25.4.1, SVG Export Plug-In . SVG Version: 6.00 Build 0)  -->
<svg version="1.1" id="Слой_1" xmlns="http://www.w3.org/2000/svg" xmlns:xlink="http://www.w3.org/1999/xlink" x="0px" y="0px"
	 viewBox="0 0 141.73 141.73" style="enable-background:new 0 0 141.73 141.73;" xml:space="preserve">
<style type="text/css">
	.st0{fill:#D82B16;}
</style>
<path class="st0" d="M42.97,90.92c-1.36,2.53-3.31,4.54-5.51,6.32c-3.24,2.66-6.51,5.28-9.62,8.1c-6.55,5.96-10.69,12.93-8.72,22.26
	c0.58,2.69,1.69,5.22,4.76,5.51c3.11,0.32,6.87,1,8.81-1.98c1.65-2.53-1-4.76-2.33-6.93c-0.06-0.1-0.13-0.19-0.19-0.29
	c-1.36-2.2-3.31-4.5-1.36-7.13c1.91-2.59,4.86-2.59,7.78-2.01c2.14,0.42,4.12,1.3,5.87,2.59c2.11,1.52,4.34,2.95,6.19,4.76
	c5.96,5.74,12.28,6.16,19.12,1.72c1.81-1.17,3.73-2.14,5.57-3.27c2.14-1.33,4.37-2.33,6.77-3.14c7.94-2.69,15.78-5.57,24.24-6.58
	c5.06-0.58,5.83-2.69,3.89-7.39c-0.91-2.2-1.72-4.44-2.56-6.64c-0.06-0.36-0.1-0.71-0.16-1.07c0-0.87-0.03-1.72-0.03-2.59
	c0-0.55,0-1.13,0-1.69v-0.26c0.32-2.14,0.36-4.31,0-6.48c0-0.26-0.03-0.49-0.03-0.75c0.68-3.11-0.06-6.48,2.56-9.27
	c3.6-3.79,3.24-4.67-1.65-6.9c-2.98-1.36-6.16-2.37-8.91-4.21c-1.91-1.26-2.43-2.59-0.26-4.21c1.81-1.36,3.53-2.85,5.22-4.37
	c7.26-6.45,14-13.25,18.05-22.3c2.79-6.22,3.14-12.74,2.14-19.35c-0.39-2.5-1.33-5.06-4.57-5.06c-2.75,0-5.38,0.78-7.68,2.37
	c-1.56,1.07-2.14,2.43-1.46,4.41c1.13,3.34,2.04,6.74,3.11,10.08c1.26,3.92,0.49,7.55-2.24,10.43c-2.75,2.92-6.35,2.56-9.82,1.2
	c-3.92-1.56-7.52-3.76-10.92-6.22c-5.7-4.12-11.37-8.26-16.98-12.51c-2.79-2.14-5.31-2.04-7.97,0.13
	c-3.69,3.01-7.55,5.83-11.15,8.94c-4.08,3.56-8.56,6.22-13.84,7.65c-4.15,1.13-8.26,2.43-12.12,4.44c-2.11,1.1-3.11,2.59-1.94,4.96
	c4.08,8.43,1.94,17.4,2.4,26.15c0.03,0.71-0.55,1.46-0.91,2.14c-2.4,4.57-1.33,7.55,3.56,9.3c2.88,1,5.9,1.62,8.78,2.66
	C41.77,85.48,43.52,87.52,42.97,90.92L42.97,90.92z M55.61,44c0-3.66,0.52-4.05,3.86-2.2c4.54,2.56,8.94,5.38,13.42,8.07
	c3.5,2.11,6.97,4.28,10.53,6.19c2.01,1.1,2.2,2.33,1.07,4.08c-0.91,1.46-2.01,2.69-3.47,3.66c-2.98,2.04-5.93,4.15-8.88,6.25
	c-1.04,0.75-2.04,1.43-3.43,1.33c-4.05-1.36-8.2-2.59-11.67-5.25c-1.39-1.07-1.46-2.72-1.43-4.34C55.64,55.86,55.61,49.93,55.61,44z
	 M58.3,87.03c3.34-3.24,6.97-6.19,11.31-8.04c5.31-2.3,8.91,0.1,8.91,5.7c0,1.91,0.1,3.86,0.16,5.77c0,0.36,0,0.71,0,1.1
	c0,0.52,0,1.07,0,1.59c-0.03,3.95-0.03,7.91-0.06,11.86c-0.03,3.66-0.75,4.21-3.92,2.5c-7.65-4.15-15.3-8.33-22.07-13.87l0,0
	C53.57,90.6,56.23,89.01,58.3,87.03z"/>
</svg>
