<svg width="250" height="313" viewBox="0 0 250 313" fill="none" xmlns="http://www.w3.org/2000/svg">
<path d="M172.221 13.4108C173.744 15.3983 174.486 17.5464 174.466 20.1161C174.366 27.5039 174.426 34.8918 174.426 42.2796C174.426 52.177 174.306 62.0943 174.486 71.9917C174.566 76.1272 174.226 79.9215 170.998 82.9128C170.898 83.0132 170.838 83.1537 170.738 83.2541C169.816 84.3984 169.856 85.3621 171.099 86.3257C175.228 89.4776 179.517 92.3484 184.147 94.7173C185.871 95.6007 187.294 95.6007 188.697 94.0749C189.839 92.8302 191.263 91.8264 192.465 90.6219C194.61 88.4336 197.216 86.8075 199.521 84.7999C201.184 83.3545 200.964 82.431 198.979 81.5678C197.095 80.7447 195.191 79.9416 193.307 79.1185C192.044 78.5765 191.283 77.6931 191.122 76.2477C190.762 72.8549 190.601 69.4621 191.082 66.0493C191.303 64.5034 191.984 63.4394 193.227 62.6163C197.757 59.5648 200.242 59.7254 204.992 63.2989C206.275 64.2625 206.997 65.4068 207.157 67.0129C207.558 70.9879 207.478 74.9629 207.318 78.9378C207.277 80.1424 207.017 81.3469 206.315 82.3708C204.552 84.9204 204.531 85.4022 207.237 87.0685C210.865 89.2969 214.513 91.4651 217.74 94.2957C219.003 95.3999 220.707 95.3397 222.07 94.2757C225.477 91.6056 228.844 88.8753 232.172 86.1049C233.595 84.9003 233.254 83.0734 231.57 82.2302C229.546 81.2064 227.562 80.0821 225.778 78.6769C225.116 78.1549 224.435 77.6128 224.415 76.6291C224.214 71.2689 224.214 65.9087 224.435 60.5485C224.455 60.0667 224.655 59.5849 224.876 59.1432C225.978 56.7944 225.758 56.1319 223.393 55.0879C221.047 54.0641 218.702 53.0603 216.337 52.0766C215.395 51.6751 214.373 51.2535 214.273 50.1493C214.172 49.1656 215.255 48.8444 215.916 48.3826C218.241 46.7364 220.687 45.3512 223.393 44.4077C225.978 43.5043 226.078 42.8418 224.315 40.8944C220.927 37.1603 217.52 33.4463 214.072 29.7524C209.683 25.0547 209.021 25.0146 204.411 29.7323C200.964 33.2657 197.035 36.1566 193.127 39.1077C192.084 39.8906 191.343 40.1115 191.283 38.405C191.002 30.8766 190.401 23.3483 191.243 15.84C191.744 11.4032 194.249 9.67672 198.659 10.7006C200.102 11.0419 201.565 11.343 203.048 11.5237C203.89 11.6241 205.073 12.0055 205.353 10.7006C205.594 9.53619 205.273 8.43203 204.07 7.80969C199.741 5.56121 195.331 4.6578 190.561 6.56499C187.795 7.68923 185.57 9.47597 183.466 11.4835C181.421 13.451 181.441 13.4309 179.397 11.5638C177.412 9.75703 175.468 7.82976 172.843 6.92636C171.82 6.56499 170.678 6.30401 169.876 7.28772C169.134 8.19112 169.535 9.21498 170.036 10.0782C170.638 11.2226 171.399 12.3468 172.221 13.4108ZM194.329 42.2796C195.472 41.5569 196.614 40.8342 197.636 39.9709C199.28 38.5857 200.643 38.6459 202.206 40.2118C204.311 42.3198 206.375 44.4478 208.28 46.7565C209.162 47.8205 209.061 48.5433 207.959 49.3664C203.289 52.8395 198.518 56.172 193.387 58.9023C191.563 59.8659 190.802 59.4042 190.741 57.3163C190.681 55.4694 190.721 53.6224 190.721 51.7754C190.721 51.7754 190.721 51.7754 190.701 51.7754C190.701 50.9323 190.842 50.0489 190.681 49.2258C190.02 45.8933 191.764 43.9058 194.329 42.2796Z" fill="white"/>
<path d="M248.567 287.284C247.986 285.557 247.845 283.831 247.845 282.044C247.865 272.388 247.905 262.731 247.865 253.075C247.865 251.308 248.146 249.742 249.008 248.196C250.23 246.028 249.809 244.623 247.464 243.92C243.596 242.736 239.928 241.009 236.1 239.745C225.797 236.372 215.815 232.236 206.014 227.619C203.93 226.635 202.366 225.39 201.745 222.961C201.144 220.592 199.42 220.211 197.596 221.857C196.974 222.419 196.473 223.142 196.052 223.865C194.75 226.093 194.008 228.542 193.467 231.052C192.445 235.85 193.467 237.898 197.937 240.086C201.384 241.772 204.932 243.178 208.52 244.563C209.081 244.784 209.983 244.743 210.043 245.486C210.103 246.189 209.321 246.47 208.76 246.731C205.994 247.996 203.308 249.441 200.362 250.345C197.375 251.268 196.974 251.89 197.335 254.962C197.736 258.415 198.638 261.788 198.578 265.321C198.478 270.922 198.498 276.543 198.558 282.144C198.598 285.216 198.578 288.247 197.095 291.058C196.834 291.54 196.774 292.142 196.714 292.383C196.694 293.909 196.774 294.11 198.077 294.471C205.834 296.679 213.029 300.132 219.744 304.549C221.327 305.573 222.67 305.352 224.053 304.368C225.837 303.083 227.581 301.738 229.385 300.494C234.576 296.9 240.569 295.394 246.582 293.969C248.607 293.487 249.489 292.463 249.128 290.416C248.928 289.372 248.887 288.268 248.567 287.284ZM230.968 272.709C230.948 277.828 230.968 282.927 230.948 288.047C230.948 290.596 230.708 290.717 228.463 289.753C224.775 288.167 221.327 286.019 217.439 284.835C216.437 284.533 215.475 283.771 215.455 282.365C215.234 271.585 214.533 260.804 214.914 250.003C214.994 247.956 215.455 247.735 217.419 248.558C221.388 250.204 225.236 252.192 229.425 253.336C230.968 253.757 230.928 255.303 230.948 256.528C231.009 261.928 230.968 267.309 230.968 272.709Z" fill="white"/>
<path d="M208.32 188.09C211.026 187.267 213.772 186.544 216.498 185.801C219.384 185.018 219.404 184.918 219.284 181.846C219.204 179.618 218.001 177.67 218.021 175.402C218.081 165.244 218.061 155.105 218.021 144.947C218.021 143.12 218.302 141.474 219.204 139.868C220.366 137.78 219.965 136.435 217.7 135.752C213.551 134.508 209.663 132.54 205.554 131.256C195.592 128.104 186.072 123.888 176.591 119.551C174.306 118.507 172.542 117.142 171.881 114.472C171.36 112.364 169.676 112.043 167.932 113.408C167.251 113.93 166.709 114.593 166.349 115.376C164.905 117.664 164.184 120.214 163.603 122.824C162.54 127.742 163.983 130.312 168.774 132.099C171.841 133.906 175.208 134.99 178.495 136.295C179.116 136.535 180.159 136.515 180.199 137.318C180.219 138.222 179.177 138.362 178.495 138.684C175.549 140.069 172.602 141.434 169.495 142.478C167.291 143.04 167.19 144.726 167.431 146.513C167.792 149.123 168.694 151.733 168.573 154.282C168.092 164.119 170.438 174.137 166.95 183.814C166.489 185.078 166.95 185.922 168.413 186.283C170.397 186.785 172.342 187.508 174.286 188.15C179.136 190.137 183.867 192.426 188.296 195.237C192.045 197.626 192.626 197.545 196.093 194.715C199.741 191.804 203.77 189.475 208.32 188.09ZM187.134 176.064C186.152 175.603 185.651 174.9 185.631 173.736C185.41 163.096 184.749 152.476 185.089 141.815C185.15 139.808 185.691 139.527 187.595 140.37C191.403 142.076 195.211 143.803 199.24 144.987C201.184 145.569 201.064 147.176 201.104 148.601C201.184 153.921 201.144 159.241 201.144 164.561C201.184 164.561 201.225 164.561 201.265 164.561C201.265 169.881 201.204 175.181 201.285 180.501C201.305 182.308 200.543 182.428 199.22 181.806C195.171 179.919 191.163 177.972 187.134 176.064Z" fill="white"/>
<path d="M133.657 189.856C136.764 191.603 139.409 193.992 142.196 196.18C143.458 197.164 144.581 197.284 145.864 196.441C149.952 193.751 153.36 190.378 156.106 186.343C157.268 184.657 156.827 183.512 154.923 182.689C154.402 182.468 153.861 182.268 153.32 182.147C151.255 181.705 150.514 180.501 150.534 178.353C150.634 168.134 150.614 157.896 150.534 147.657C150.514 145.368 150.955 143.582 152.899 142.116C154.803 140.691 154.663 140.008 152.638 138.603C150.253 136.957 147.667 135.571 145.503 133.684C143.298 131.777 140.853 130.211 138.628 128.344C137.726 127.581 137.084 127.742 136.303 128.585C134.88 130.071 133.376 131.476 131.853 132.861C128.025 136.374 124.056 139.687 119.626 142.417C117.863 143.501 117.622 143.381 117.562 141.373C117.502 139.747 117.482 138.101 117.542 136.475C117.582 135.612 117.321 134.969 116.62 134.467C113.433 132.199 110.126 130.131 106.518 128.605C105.295 128.083 104.253 128.244 103.191 129.127C100.385 131.456 97.9192 134.086 95.6343 136.896C92.3271 140.952 92.3671 141.193 97.1175 143.381C99.5428 144.505 101.287 146.071 101.287 148.982C101.287 158.217 101.327 167.452 101.287 176.686C101.267 179.597 100.645 182.247 98.0996 184.195C95.9549 185.841 96.0351 186.122 97.9994 188.11C100.906 191.061 104.534 193.108 107.6 195.859C109.023 197.144 110.186 197.204 111.649 195.899C114.535 193.369 117.522 190.96 120.488 188.551C125.078 184.837 125.118 184.576 119.847 181.906C117.722 180.822 116.901 179.377 116.981 177.008C117.141 172.812 117.021 168.616 117.021 164.44H117.041C117.041 159.963 117.041 155.487 117.041 151.01C117.041 148.801 121.952 143.682 124.136 143.622C124.557 143.622 124.978 143.722 125.379 143.863C128.185 144.786 130.57 146.412 132.775 148.34C133.557 149.022 133.697 149.865 133.777 150.809C134.338 157.253 134.318 163.718 134.278 170.182C134.238 175.984 134.699 181.866 132.434 187.447C131.913 188.732 132.815 189.374 133.657 189.856Z" fill="white"/>
<path d="M83.7485 181.645C81.3432 180.18 80.1406 178.233 79.9201 175.462C79.5393 170.564 79.4992 165.665 79.5994 160.787C79.7197 154.242 78.6774 147.557 81.5036 141.273C81.6238 141.032 81.5838 140.711 81.6038 140.651C81.6439 138.864 81.5838 138.563 80.0604 138.061C73.6465 135.973 67.2526 133.925 61.8208 129.71C61.6604 129.589 61.4399 129.529 61.2395 129.429C58.9946 128.365 56.9502 128.605 55.2464 130.493C53.0216 132.962 50.1554 134.528 47.3493 136.194C45.1645 137.499 42.9397 138.764 40.8752 140.269C35.8643 143.883 34.7218 147.838 36.7863 153.68C37.6281 156.069 39.0913 158.056 40.8351 159.863C42.3785 161.489 42.2381 162.072 40.0133 162.594C38.2294 163.015 36.3654 163.176 34.5614 163.537C31.5349 164.159 31.3344 164.942 32.076 167.954C33.3187 173.033 34.5815 178.212 31.9357 183.292C31.134 184.837 31.4948 186.102 32.6172 187.347C35.5837 190.619 38.8107 193.57 42.4185 196.12C44.002 197.244 45.4652 197.204 47.1288 196.22C52.0996 193.329 56.6495 189.796 61.3998 186.604C62.9833 185.54 64.3863 185.62 65.5489 186.986C67.7537 189.575 70.2992 191.864 72.0831 194.795C73.6866 197.425 75.3301 197.746 77.9358 196.08C80.5816 194.393 82.8665 192.265 84.931 189.896C88.6591 185.661 88.579 184.556 83.7485 181.645ZM44.0621 156.511C40.314 153.038 40.334 147.517 43.9619 144.003C45.4451 142.558 47.0887 142.036 49.1732 143.02C53.1419 144.867 57.1105 146.754 61.3397 148.039C62.6826 148.44 63.4443 149.324 63.3441 150.869C63.2438 152.496 63.324 154.122 63.324 155.768C63.324 155.768 63.324 155.768 63.3441 155.768C63.3441 157.474 63.3441 159.181 63.3441 160.867C63.3441 161.61 63.324 162.373 62.2818 162.313C55.6874 161.971 49.1933 161.269 44.0621 156.511ZM63.9253 179.457C63.5846 181.806 57.8922 185.6 54.8857 185.42C51.839 185.219 48.7323 181.806 48.5519 178.494C48.5519 177.148 48.1109 171.126 48.0708 169.801C47.9907 167.131 49.3135 165.464 51.9593 165.384C55.4469 165.264 58.8343 166.127 62.2818 166.468C63.1236 166.548 63.3842 167.251 63.4242 168.034C63.6247 171.648 63.8251 175.241 64.0055 178.855C64.0055 179.036 63.9454 179.236 63.9253 179.457Z" fill="white"/>
<path d="M124.477 237.717C122.954 236.01 121.891 236.231 120.649 238.199C120.148 238.982 119.727 239.805 119.266 240.588C117.101 244.161 115.277 247.975 112.351 251.027C111.789 251.609 111.208 252.633 110.326 252.292C109.224 251.85 109.464 250.605 109.585 249.642C109.765 248.096 110.046 246.55 110.306 245.024C110.507 243.84 110.126 243.037 109.104 242.354C106.819 240.788 104.594 239.142 102.409 237.456C101.467 236.733 100.765 236.773 99.7833 237.416C94.8926 240.567 90.3227 244.181 85.6325 247.614C84.049 248.758 84.2495 250.565 86.0534 251.569C87.3963 252.312 88.9196 252.794 90.4029 253.255C92.1266 253.777 92.8482 254.681 92.8281 256.628C92.7079 265.281 92.7079 273.953 92.8081 282.606C92.8482 285.517 92.9885 288.287 89.8617 289.853C89.561 289.994 89.3606 290.355 89.1401 290.636C87.7972 292.443 87.9776 293.346 89.8817 294.591C94.4918 297.623 99.3223 300.333 103.712 303.726C106.778 306.095 107.5 305.994 110.547 303.565C115.137 299.891 119.626 296.057 124.938 293.407C126.321 292.704 127.544 291.68 128.626 290.536C129.608 289.492 129.929 288.247 129.869 286.822C129.829 285.557 129.207 285.236 128.085 285.397C126.501 285.637 125.459 286.722 124.417 287.786C120.629 291.6 117.863 291.841 113.313 289.03C110.807 287.484 109.484 285.497 109.424 282.465C109.344 278.912 109.424 275.359 109.545 271.825C109.545 268.774 109.625 265.722 109.504 262.671C109.444 260.824 109.845 259.198 110.807 257.632C111.569 256.407 112.15 254.881 113.814 255.002C115.397 255.122 116.019 256.608 116.64 257.913C118.263 261.266 118.905 264.919 119.947 268.453C120.228 269.436 120.288 270.581 121.791 270.681C123.274 270.781 124.136 270.239 124.778 268.874C126.982 264.076 129.708 259.599 133.416 255.805C134.218 254.982 134.539 253.978 134.058 253.095C131.131 247.755 128.546 242.254 124.477 237.717Z" fill="white"/>
<path d="M186.291 248.999C180.759 245.044 174.846 241.632 169.535 237.355C167.691 235.87 166.468 236.091 164.724 237.737C158.651 243.418 151.475 247.172 143.638 249.722C139.57 251.047 138.868 252.372 140.692 256.307C141.594 258.274 142.055 260.262 142.175 262.43C142.436 267.188 142.436 271.946 142.296 276.684C142.155 282.144 143.618 287.886 139.429 292.764C138.187 294.21 139.089 295.695 141.033 296.579C142.837 297.402 144.701 298.104 146.485 298.968C149.912 300.614 153.58 301.678 156.607 304.228C158.811 306.095 161.437 305.653 163.722 303.525C164.624 302.682 165.606 302.039 166.649 301.437C171.098 298.867 175.608 296.358 180.158 293.989C181.761 293.146 183.726 292.604 184.808 290.857C185.409 289.893 185.77 288.91 185.069 287.886C184.407 286.922 183.425 286.902 182.403 287.243C181.26 287.605 180.118 287.986 178.955 288.348C176.67 289.07 174.365 289.773 172.1 290.496C168.011 289.331 164.003 288.187 159.994 287.023C159.313 286.822 159.313 286.24 159.272 285.637C158.932 281.381 158.912 277.246 163.381 274.817C163.442 274.776 163.482 274.736 163.542 274.676C171.198 267.71 178.855 260.723 186.492 253.737C188.576 251.83 188.496 250.585 186.291 248.999ZM171.078 261.687C167.671 265.1 164.123 268.352 160.295 271.283C159.914 271.564 159.573 272.147 159.032 271.906C158.371 271.605 158.691 270.902 158.691 270.38C158.651 267.328 158.671 264.277 158.671 261.245H158.691C158.691 258.134 158.691 255.002 158.691 251.89C158.691 251.087 158.671 250.284 159.533 249.883C160.415 249.461 160.996 250.063 161.598 250.565C164.684 253.175 167.731 255.805 170.838 258.375C172.12 259.419 172.361 260.402 171.078 261.687Z" fill="white"/>
<path d="M39.372 288.568C39.1515 288.749 38.911 288.93 38.7506 289.151C36.8465 291.881 34.3611 291.941 31.6151 290.676C30.3924 290.114 29.27 289.351 28.0473 288.789C26.2033 287.926 25.5419 286.46 25.5619 284.493L25.1009 272.568C25.1009 270.581 25.1009 268.593 25.1009 266.606C25.1009 264.618 25.0809 262.631 25.121 260.643C25.1811 257.893 25.6421 257.391 28.4081 257.451C31.9558 257.531 35.4835 257.752 39.0312 257.933C40.5145 258.013 41.236 257.451 41.236 255.845C41.2561 253.858 41.5567 251.89 41.657 249.903C41.8173 246.751 41.2962 246.269 38.1894 246.43C34.782 246.59 31.4347 247.172 28.0073 247.072C26.0831 247.012 25.4617 246.209 25.7022 244.442C26.0029 242.113 26.2434 239.785 26.6042 237.476C27.0852 234.384 27.6465 231.313 28.1476 228.221C28.328 227.097 28.0473 225.972 27.0852 225.41C26.0029 224.768 25.2412 225.732 24.5397 226.394C23.9785 226.916 23.4974 227.558 23.0164 228.161C20.6913 231.032 19.0277 234.364 16.6225 237.195C11.7118 242.977 6.96146 248.919 1.36929 254.098C0.747937 254.661 -0.294332 255.243 0.32702 256.387C0.868198 257.371 1.87038 257.531 2.91265 257.511C4.39588 257.491 5.89915 257.491 7.38237 257.451C8.88565 257.391 9.507 258.013 9.52704 259.599C9.6473 267.83 9.8277 276.081 10.0883 284.312C10.1885 287.906 8.88565 290.757 6.23989 293.146C4.21548 294.993 4.25557 295.715 6.64076 296.96C11.3711 299.389 16.1615 301.698 20.7114 304.468C22.7157 305.693 24.7001 305.532 26.7245 304.288C32.4369 300.795 37.6282 296.639 42.6792 292.262C44.0622 291.058 44.1424 289.532 43.1402 288.287C41.9376 286.802 40.5546 287.605 39.372 288.568Z" fill="white"/>
<path d="M78.838 291.6C77.6554 290.978 76.3325 290.596 75.1099 290.074C72.1635 288.809 71.1212 287.183 71.1212 283.991C71.1212 274.475 71.1613 264.959 71.0611 255.444C71.041 253.295 71.6022 251.649 73.1656 250.144C75.5107 247.915 75.3504 246.209 72.5643 244.542C68.7961 242.274 65.0079 240.066 61.4602 237.456C60.458 236.713 59.3556 236.552 58.3534 237.456C54.7255 240.748 51.1377 244.081 47.5098 247.353C46.1669 248.578 46.688 249.501 47.9508 250.164C49.1935 250.806 50.5765 251.228 51.8793 251.77C53.9238 252.633 54.8658 254.058 54.8057 256.407C54.6654 261.787 54.7656 267.188 54.7656 272.588L54.8057 286.059C54.9059 289.572 54.024 292.001 50.7168 294.31C48.993 295.515 49.4741 297.261 51.4785 298.225C55.2266 300.032 59.0349 301.698 62.4022 304.288C64.6471 306.014 66.2105 305.653 68.5155 303.826C71.1813 301.698 73.787 299.51 76.6532 297.643C77.6554 297 78.6376 296.237 79.4593 295.394C80.8223 294.009 80.5818 292.503 78.838 291.6Z" fill="white"/>
<path d="M126.923 85.5629C130.45 86.9281 133.697 88.7951 136.784 90.9633C138.688 92.3084 140.693 93.533 142.657 94.7978C143.819 95.5606 145.002 95.6208 146.265 94.9182C151.676 91.8667 157.128 88.8353 162.56 85.8038C164.043 85.0008 165.547 84.2179 166.99 83.3546C168.252 82.6118 168.313 81.327 167.892 80.1626C167.491 79.0785 166.368 79.3796 165.486 79.5202C164.123 79.7209 162.961 80.3834 161.979 81.327C159.774 82.652 157.529 83.4148 154.944 82.3107C152.338 81.1864 149.752 80.0823 147.307 78.6167C145.784 77.7133 145.182 76.5289 145.202 74.7823C145.403 64.5838 144.962 54.3653 145.563 44.1669C145.703 41.6976 145.924 41.5169 148.109 42.7013C151.336 44.4479 154.322 46.6563 157.71 48.1419C158.712 48.8044 159.774 49.3865 160.716 50.1293C162.039 51.1733 162.801 50.8119 163.422 49.3865C164.985 45.8934 166.549 42.4002 168.212 38.9472C168.874 37.5419 168.473 36.7589 167.29 35.9559C163.482 33.3662 159.513 31.0374 155.344 29.07C154.863 28.7889 154.382 28.4878 153.881 28.2067C151.195 26.7813 150.614 26.9419 148.95 29.5718C148.469 30.3548 148.008 31.198 147.367 31.8203C142.196 36.8392 135.962 39.9108 129.087 41.7578C126.442 42.4604 125.84 43.7453 127.624 45.9335C128.747 47.3188 129.288 48.8244 129.488 50.571C130.069 55.9513 129.729 61.3517 129.969 66.7319C130.23 72.3933 129.809 77.7736 126.061 82.4111C124.878 83.7762 125.279 84.9205 126.923 85.5629Z" fill="white"/>
<path d="M33.4789 73.1763C32.617 74.7422 31.4144 76.007 30.0314 77.1312C28.007 78.7975 25.9625 80.4437 24.0183 82.2104C19.9294 85.9445 17.3438 90.3209 18.5664 96.1429C18.9272 97.8092 19.6287 99.3952 21.5329 99.5959C23.4771 99.7967 25.8222 100.218 27.0449 98.3512C28.0871 96.7853 26.4235 95.3599 25.6017 94.0149C25.5617 93.9546 25.5216 93.8944 25.4815 93.8342C24.6396 92.449 23.417 91.0035 24.6196 89.3774C25.8022 87.7713 27.6462 87.7513 29.4702 88.1327C30.8131 88.3937 32.0357 88.9558 33.1381 89.7588C34.461 90.7225 35.844 91.6058 37.0066 92.73C40.7347 96.3236 44.6833 96.5846 48.9526 93.794C50.075 93.0512 51.2977 92.449 52.4401 91.7463C53.763 90.9031 55.1661 90.2808 56.6693 89.7789C61.6402 88.0925 66.5308 86.2857 71.8223 85.6634C74.9692 85.2819 75.4703 83.977 74.2476 81.0259C73.6663 79.6608 73.1652 78.2555 72.6441 76.8702C72.604 76.6494 72.584 76.4286 72.5439 76.2077C72.5439 75.6657 72.5238 75.1237 72.5238 74.5816C72.5238 74.2203 72.5238 73.879 72.5238 73.5176V73.357C72.7243 72.0119 72.7443 70.6669 72.5238 69.3017C72.5238 69.1411 72.5038 69.0006 72.5038 68.84C72.9247 66.8926 72.4637 64.7847 74.1073 63.0381C76.3522 60.6692 76.1317 60.1071 73.065 58.7018C71.201 57.8586 69.2166 57.2162 67.4929 56.0718C66.3103 55.2688 65.9896 54.4457 67.3326 53.4419C68.475 52.5987 69.5373 51.6552 70.5997 50.7116C75.1295 46.6764 79.3587 42.4003 81.8842 36.739C83.628 32.8443 83.8685 28.7689 83.2271 24.6333C82.9866 23.0674 82.3853 21.4814 80.3809 21.4814C78.6572 21.4814 77.0136 21.9633 75.5705 22.967C74.5883 23.6496 74.2275 24.4928 74.6485 25.7174C75.37 27.8053 75.9112 29.9333 76.5927 32.0212C77.3944 34.4905 76.8934 36.739 75.1896 38.5458C73.4659 40.3727 71.221 40.1518 69.0563 39.2886C66.5909 38.3049 64.3661 36.9397 62.2415 35.3939C58.6938 32.8041 55.126 30.2344 51.6384 27.5644C49.8946 26.2193 48.3112 26.2795 46.6475 27.6447C44.3425 29.5318 41.9373 31.2985 39.6924 33.2458C37.1268 35.4742 34.3408 37.1405 31.0336 38.0439C28.4479 38.7465 25.8623 39.5496 23.4571 40.8344C22.1342 41.537 21.5128 42.4605 22.2344 43.9461C24.8 49.206 23.4571 54.8472 23.7176 60.3279C23.7377 60.7695 23.3769 61.2313 23.1564 61.673C21.6531 64.5237 22.3346 66.4108 25.3813 67.4949C27.1852 68.1373 29.0693 68.5188 30.8732 69.1612C32.7373 69.7434 33.8397 71.0282 33.4789 73.1763ZM41.3961 43.7654C41.3961 41.4567 41.7168 41.2158 43.8013 42.4003C46.6475 44.0064 49.3935 45.773 52.1796 47.4393C54.3643 48.7442 56.529 50.1094 58.7739 51.3139C60.0367 51.9965 60.1369 52.7594 59.4354 53.8635C58.8541 54.7669 58.1726 55.5499 57.2707 56.1521C55.4066 57.4169 53.5626 58.7419 51.7186 60.0669C51.0772 60.5286 50.4358 60.9703 49.5539 60.9101C47.0284 60.0468 44.4427 59.2839 42.258 57.6177C41.3961 56.9552 41.356 55.9313 41.356 54.8874C41.3961 51.2135 41.3961 47.4794 41.3961 43.7654ZM43.0798 70.7271C45.1843 68.6994 47.4493 66.8525 50.1552 65.6881C53.4824 64.2426 55.7273 65.7483 55.7273 69.2616C55.7273 70.4661 55.7874 71.6706 55.8275 72.8752C55.8275 73.096 55.8275 73.3369 55.8275 73.5578C55.8275 73.899 55.8275 74.2203 55.8275 74.5615C55.8075 77.0308 55.8075 79.5202 55.7874 81.9895C55.7674 84.2782 55.3264 84.6395 53.3421 83.5554C48.5717 80.9456 43.7813 78.3558 39.5521 74.8627C40.1133 72.9756 41.7769 71.9718 43.0798 70.7271Z" fill="white"/>
<path d="M88.6794 40.4327C89.8018 41.0149 91.0445 41.3562 92.2271 41.8581C94.7927 42.9221 95.4541 43.966 95.414 46.7365C95.394 49.5069 95.3739 52.2573 95.3539 55.0277C95.1935 62.0341 94.8929 69.0606 94.9129 76.067C94.9129 79.4197 94.6524 82.2704 91.5256 84.3984C89.7818 85.5829 90.2027 87.4901 92.0667 88.3935C95.6145 90.12 99.2223 91.6458 102.449 94.0749C105.376 96.2832 106.759 95.9219 109.685 93.5329C110.567 92.8302 111.449 92.1075 112.351 91.4249C114.676 89.6783 117.061 88.0321 119.326 86.2253C121.611 84.3784 121.33 82.6318 118.625 81.4473C117.262 80.845 115.798 80.4435 114.536 79.7208C112.611 78.6166 111.329 76.9905 111.389 74.6015L111.549 68.6792C111.529 68.4583 111.529 68.2375 111.509 68.0368C111.529 67.5349 111.549 67.053 111.569 66.5512C111.569 66.3504 111.569 66.1296 111.569 65.9288C111.569 65.6879 111.569 65.4269 111.569 65.186C111.609 58.4406 111.689 51.6951 111.669 44.9698C111.669 43.2834 112.211 41.9785 113.393 40.8141C116.259 37.9835 116.079 36.4577 112.551 34.4301C108.984 32.3623 105.476 30.2342 102.169 27.785C100.966 26.9017 99.8637 26.8816 98.7413 27.9255C95.2336 31.1376 91.706 34.3096 88.2184 37.5418C86.9556 38.6861 87.0959 39.6297 88.6794 40.4327Z" fill="white"/>
<path d="M59.4355 234.746C60.3375 235.127 61.0992 234.545 61.6403 233.862C65.7292 228.783 69.8582 223.744 73.8269 218.585C75.3301 216.617 74.2678 214.811 71.7624 214.61C70.9807 214.55 70.219 214.509 69.3371 214.449C68.2347 214.509 67.012 214.469 65.8295 214.63C63.8051 214.911 62.3419 215.714 62.0212 218.123C61.7005 220.492 60.8987 222.781 60.3575 225.129C59.7763 227.679 58.8142 230.168 58.9946 232.839C59.0347 233.501 58.6138 234.404 59.4355 234.746Z" fill="white"/>
<path d="M100.285 25.0148C101.427 25.3761 102.169 24.3121 102.87 23.489C102.91 23.4288 102.95 23.3686 103.011 23.3284C105.396 20.3372 107.781 17.3459 110.166 14.3546C111.529 12.6482 112.992 10.9819 114.255 9.19514C115.919 6.88644 115.057 5.03948 112.311 4.89895C110.467 4.79857 108.623 4.71827 106.799 4.87887C105.436 4.99933 103.672 5.0997 103.251 6.68568C101.828 11.8652 100.425 17.0648 99.5229 22.2443C99.9238 23.2682 98.9818 24.6133 100.285 25.0148Z" fill="white"/>
</svg>
